<svg xmlns="http://www.w3.org/2000/svg" viewBox="0 0 64 64" role="img" aria-labelledby="title">
  <title id="title">Skyfall Mage2</title>
  <defs>
    <radialGradient id="sky" cx="30%" cy="24%" r="78%">
      <stop offset="0%" stop-color="#2ee8ff" />
      <stop offset="42%" stop-color="#3156d4" />
      <stop offset="100%" stop-color="#11111f" />
    </radialGradient>
    <linearGradient id="meteor" x1="11" y1="7" x2="45" y2="40" gradientUnits="userSpaceOnUse">
      <stop offset="0%" stop-color="#fff7a3" />
      <stop offset="48%" stop-color="#6ff7ff" />
      <stop offset="100%" stop-color="#5b7cff" />
    </linearGradient>
    <linearGradient id="robe" x1="18" y1="25" x2="46" y2="59" gradientUnits="userSpaceOnUse">
      <stop offset="0%" stop-color="#f5f1ff" />
      <stop offset="36%" stop-color="#6edcff" />
      <stop offset="100%" stop-color="#4736c9" />
    </linearGradient>
    <linearGradient id="brim" x1="14" y1="46" x2="51" y2="55" gradientUnits="userSpaceOnUse">
      <stop offset="0%" stop-color="#ffd96b" />
      <stop offset="100%" stop-color="#ff7a45" />
    </linearGradient>
  </defs>
  <rect width="64" height="64" rx="14" fill="url(#sky)" />
  <path d="M10 12 34 31" fill="none" stroke="#f5fdff" stroke-width="5.5" stroke-linecap="round" opacity=".45" />
  <path d="M14 8 39 33" fill="none" stroke="url(#meteor)" stroke-width="3.2" stroke-linecap="round" />
  <path d="M42.4 31.5 38 37.7l-6.6.6 4-5.4-4.7-4.7 6.3.9 4.5-5.6.9 7.9Z" fill="#fff7a3" />
  <path d="M27.7 14.5 44.7 50H18.8l9-35.5Z" fill="#151426" />
  <path d="M28.3 15.6 41 48H21.6l6.7-32.4Z" fill="url(#robe)" />
  <path d="M18 48.2c7.4-4 22.2-3.6 31.4 1.1 2.7 1.4 2 5.5-1.1 5.7-8.5.6-22.3.8-31.1-.3-3.5-.4-3.8-4.8.8-6.5Z" fill="#151426" />
  <path d="M17.6 49.3c7.8-2.8 21.8-2.4 31 1.3-9.3 2.1-22.1 2.1-31-.1Z" fill="url(#brim)" />
  <path d="M30.5 26.5 27.8 36h8.6l-5.3 13.2 1-10.2h-7.7l6.1-12.5Z" fill="#fff7a3" />
</svg>
